<?xml version="1.0" encoding="UTF-8"?>
<svg id="Layer_1" xmlns="http://www.w3.org/2000/svg" version="1.1" viewBox="0 0 30 30">
  <!-- Generator: Adobe Illustrator 29.7.1, SVG Export Plug-In . SVG Version: 2.1.1 Build 8)  -->
  <defs>
    <style>
      .st0 {
        fill: none;
        stroke: #3a3a3a;
        stroke-miterlimit: 10;
        stroke-width: .58px;
      }

      .st1 {
        fill: #3a3a3a;
      }

      .st2 {
        fill: #e7a323;
      }
    </style>
  </defs>
  <circle class="st2" cx="23.11" cy="23.57" r="4.7"/>
  <path class="st0" d="M28.08,10.63l-13.63,7.29-8.14-3.48,13.63-7.29,8.14,3.48Z"/>
  <path class="st0" d="M21.3,12.81l2.81-1.5c-.45-.19-.45-.55,0-.79l-3.55-1.52c-.46.24-1.2.29-1.65.09l-2.81,1.5"/>
  <path class="st0" d="M13.22,12.13l-2.82,1.51c.45.19.45.55,0,.79l3.55,1.52c.46-.24,1.2-.29,1.65-.09l2.82-1.51"/>
  <path class="st1" d="M17.12,12.3c-.66.17-.84.17-1,.1-.15-.06-.2-.19.1-.35.3-.16.6-.22.72-.24.05,0,.09-.03.11-.05.02-.02.02-.05,0-.07l-.21-.21s-.12-.05-.2-.03c-.28.05-.54.14-.77.24l-.5-.21c-.07-.03-.17-.02-.24.01l-.31.17c-.07.04-.06.08,0,.11l.54.23c-.37.31-.3.6.14.79.55.23,1.22.1,1.87-.07.6-.16.82-.12.97-.06.22.09.18.26-.1.41-.23.12-.54.22-.85.27-.05,0-.1.03-.12.05s-.02.05,0,.07l.22.21s.1.05.18.04c.3-.04.65-.15.94-.28l.4.17c.07.03.19.01.26-.02l.31-.17c.07-.04.06-.09,0-.12l-.43-.18c.36-.31.3-.63-.16-.83-.32-.13-.82-.25-1.87.02h0Z"/>
  <path class="st0" d="M28.08,12.31l-13.63,7.29-8.14-3.48"/>
  <path class="st0" d="M28.08,13.99l-13.63,7.29-8.14-3.48"/>
  <path class="st0" d="M17.39,21.39l-2.93,1.57-8.14-3.48"/>
  <path class="st0" d="M28.08,15.68l-3.03,1.62"/>
  <path class="st0" d="M16.93,23.32l-2.47,1.32-8.14-3.48"/>
  <path class="st0" d="M28.08,17.36l-1.32.71"/>
  <path class="st0" d="M28.08,12.31l-13.63,7.29-8.14-3.48"/>
  <ellipse class="st0" cx="4.8" cy="12.88" rx="2.88" ry="1.59"/>
  <path class="st0" d="M4.8,16.2c-1.59,0-2.88-.71-2.88-1.59"/>
  <path class="st0" d="M4.8,17.93c-1.59,0-2.88-.71-2.88-1.59"/>
  <path class="st0" d="M4.8,19.66c-1.59,0-2.88-.71-2.88-1.59"/>
  <path class="st0" d="M4.8,21.34c-1.59,0-2.88-.71-2.88-1.59v-6.86"/>
  <ellipse class="st0" cx="8.87" cy="10.34" rx="2.88" ry="1.59"/>
  <ellipse class="st0" cx="13.27" cy="4.67" rx="2.88" ry="1.59"/>
  <path class="st0" d="M16.15,6.35c0,.88-1.29,1.59-2.88,1.59s-2.88-.71-2.88-1.59"/>
  <path class="st0" d="M16.15,8.05c0,.88-1.29,1.59-2.88,1.59s-2.88-.71-2.88-1.59"/>
  <path class="st0" d="M10.39,4.67v4.32"/>
  <path class="st0" d="M16.16,4.67v4.32"/>
  <circle class="st0" cx="23.32" cy="23.42" r="4.61"/>
  <g>
    <path class="st0" d="M21.24,21.34l4.15,4.15"/>
    <path class="st0" d="M25.39,21.34l-4.15,4.15"/>
  </g>
</svg>