<?xml version="1.0" encoding="UTF-8"?>
<svg id="Layer_1" xmlns="http://www.w3.org/2000/svg" version="1.1" viewBox="0 0 30 30">
  <!-- Generator: Adobe Illustrator 29.7.1, SVG Export Plug-In . SVG Version: 2.1.1 Build 8)  -->
  <defs>
    <style>
      .st0 {
        fill: #e89b92;
      }

      .st0, .st1, .st2 {
        fill-rule: evenodd;
      }

      .st1 {
        fill: #477c79;
      }

      .st2 {
        fill: #3a3a3a;
      }

      .st3 {
        fill: #e7a323;
      }
    </style>
  </defs>
  <circle class="st3" cx="14.79" cy="11.42" r="1.88"/>
  <polygon class="st1" points="10.17 19.7 19.62 19.41 19.34 16.29 18.02 15.13 16.04 14.06 13.55 14.06 11.91 14.61 10.87 15.63 10.17 17.52 10.17 19.7"/>
  <path class="st0" d="M19.95,13.93l.59,3.76.9,1.31,1.98,1.31s.98-.61,1.11-.87,1.65-1.51,1.65-1.51l.15-1.98.3-2.01-2.04-.41-1.27-.72-1.54.72-1.83.41Z"/>
  <g id="Layer_x5F_1">
    <path class="st2" d="M22.53,17.69c-.21,0-.73-.62-1-.88-.26-.26.14-.66.4-.4l.6.6,2.19-2.19c.26-.26.66.13.4.4l-2.39,2.39c-.05.05-.13.08-.2.08h0Z"/>
    <path class="st2" d="M23.32,20.32s-.06,0-.09-.02c-3.99-1.39-3.5-6.05-3.43-6.58.02-.13.13-.25.26-.26,2.58-.19,2.9-1.37,3.27-1.37s.72,1.18,3.27,1.37c.14,0,.25.12.26.26.07.52.56,5.18-3.43,6.57-.03,0-.06.02-.1.02h0ZM20.34,14.01c-.09.99-.17,4.56,2.99,5.72,3.15-1.17,3.07-4.73,2.99-5.72-1.68-.18-2.6-.84-2.99-1.21-.39.37-1.31,1.03-2.99,1.21Z"/>
    <path class="st2" d="M19.46,20h-9.34c-.16,0-.28-.13-.28-.28v-1.31c0-2.47,2.01-4.47,4.47-4.47h.96c2.47,0,4.47,2.01,4.47,4.47v1.31c0,.15-.13.28-.28.28ZM10.4,19.43h8.78v-1.03c0-2.16-1.75-3.91-3.91-3.91h-.96c-2.16,0-3.91,1.75-3.91,3.91v1.03Z"/>
    <path class="st2" d="M14.79,13.62c-1.21,0-2.2-.99-2.2-2.2s.99-2.2,2.2-2.2,2.2.99,2.2,2.2-.99,2.2-2.2,2.2h0ZM14.79,9.78c-.9,0-1.64.74-1.64,1.64s.74,1.64,1.64,1.64,1.64-.74,1.64-1.64-.73-1.64-1.64-1.64Z"/>
    <path class="st2" d="M12.19,20c-.16,0-.28-.13-.28-.28v-2.11c0-.37.56-.37.56,0v2.11c0,.16-.13.28-.28.28h0Z"/>
    <path class="st2" d="M17.39,20c-.15,0-.28-.13-.28-.28v-2.11c0-.37.56-.37.56,0v2.11c0,.16-.13.28-.28.28h0Z"/>
    <path class="st2" d="M23.32,27.53H6.26c-.16,0-.28-.13-.28-.28V3.71c0-.16.13-.28.28-.28h11.51c.07,0,.14.03.19.07l5.56,5.02c.06.05.09.13.09.21v3.66c0,.3-1.12,1.4-3.27,1.62-.09,1-.17,4.63,3.08,5.76.11.04.19.15.19.27v7.22c0,.15-.13.28-.28.28ZM6.54,26.97h16.5v-6.74c-3.78-1.47-3.31-5.99-3.24-6.51.02-.13.13-.25.26-.26,1.89-.14,2.77-.95,2.98-1.18v-3.43l-5.38-4.86H6.54v22.97h0Z"/>
    <path class="st2" d="M23.32,9.01h-5.56c-.15,0-.28-.13-.28-.28V3.71c0-.37.57-.37.57,0v4.73h5.28c.37,0,.37.56,0,.56Z"/>
    <path class="st2" d="M17.74,21.8h-5.89c-.37,0-.37-.56,0-.56h5.89c.37,0,.37.56,0,.56h0Z"/>
    <path class="st2" d="M19.68,23.52h-9.77c-.37,0-.37-.56,0-.56h9.77c.37,0,.37.56,0,.56Z"/>
    <path class="st2" d="M20.52,25.25h-11.45c-.37,0-.37-.56,0-.56h11.45c.37,0,.37.56,0,.56Z"/>
  </g>
</svg>