<?xml version="1.0" encoding="UTF-8"?>
<svg id="Layer_1" xmlns="http://www.w3.org/2000/svg" version="1.1" viewBox="0 0 30 30">
  <!-- Generator: Adobe Illustrator 29.7.1, SVG Export Plug-In . SVG Version: 2.1.1 Build 8)  -->
  <defs>
    <style>
      .st0, .st1 {
        fill: none;
      }

      .st1 {
        stroke: #3a3a3a;
        stroke-miterlimit: 10;
        stroke-width: .58px;
      }

      .st2 {
        fill: #e89b92;
      }

      .st3 {
        fill: #477c79;
      }
    </style>
  </defs>
  <polygon class="st3" points="8.99 7.43 8.07 9.34 6.03 10.32 8.07 11.53 9.05 13.57 10.27 11.53 12.31 10.32 10.11 9.02 8.99 7.43"/>
  <path class="st2" d="M21.55,6.54s-1.61-.76-1.8-.67-1.88.48-1.88.48l-.75,1.39.38,2.28,3.47,3.54.63.62h.57l2.38-2.36,2.17-2.07-.02-1.59-.81-1.83-1.16-.48-1.73.13-1.08,1.12-.36-.59Z"/>
  <rect class="st0" x="1.95" y="1.72" width="26.74" height="26.74"/>
  <path id="path2685" class="st1" d="M8.99,28.06c-.27,0-.5-.22-.5-.5v-1.46c0-.27.22-.5.5-.5h4.94c.28,0,.5.23.5.5v1.46c0,.27-.22.5-.5.5h-4.94Z"/>
  <path id="path2689" class="st1" d="M9.08,25.6c-.07-1.81-.45-1.5-2.72-3.09-.31-.24-.79-.7-1.09-1.43l-2.36-5.5c-.49-1.16,1.07-1.97,1.68-.7l1.53,2.9c.27.52.66.8,1.07,1.22l2.24,2c.81.6,1.57-.4.97-1.01-.4-.43-.56-.64-1-1.14-1.16-1.31.4-2.61,1.59-1.59l2.03,2.45c.85,1.02.74,2.7.75,3.98"/>
  <path id="path2693" class="st1" d="M21.65,28.06c.27,0,.5-.22.5-.5v-1.46c0-.27-.22-.5-.5-.5h-4.94c-.27,0-.5.23-.5.5v1.46c0,.27.23.5.5.5h4.94Z"/>
  <path id="path2697" class="st1" d="M21.55,25.6c.07-1.81.45-1.5,2.72-3.09.31-.24.79-.7,1.1-1.43l2.36-5.5c.5-1.16-1.07-1.97-1.68-.7l-1.52,2.9c-.27.52-.66.8-1.07,1.22l-2.24,2c-.81.6-1.57-.4-.97-1.01.4-.43.56-.64,1-1.14,1.16-1.31-.4-2.61-1.59-1.59l-2.03,2.45c-.85,1.02-.74,2.7-.75,3.98"/>
  <path id="path2701" class="st1" d="M21.87,14.37c-.07,0-.14-.06-.28-.17l-3.28-3.25-.45-.44c-1.1-1.14-1.1-3.01,0-4.15,1-1.04,2.62-.78,3.69.19.2.18.27.27.32.26.05,0,.12-.09.32-.26,1.07-.96,2.69-1.22,3.69-.19,1.1,1.14,1.1,3.01,0,4.15l-.45.44-3.28,3.25c-.14.11-.21.17-.28.17Z"/>
  <path id="path2705" class="st1" d="M23.96,5.7h0c-.22-.88-.66-1.72-1.32-2.4-1.79-1.86-4.69-1.39-6.6.33-.35.32-.48.48-.57.48-.09,0-.22-.16-.57-.48-1.91-1.72-4.81-2.19-6.6-.33-1.65,1.7-1.92,4.32-.81,6.32"/>
  <path id="path2709" class="st1" d="M9.89,12.31l5.07,5.02c.25.2.38.31.5.31.13,0,.25-.11.51-.31l3.13-3.1"/>
  <path id="path2713" class="st1" d="M9.29,13.57l.98-2.04,2.04-.98c.23-.09.23-.14,0-.23l-2.04-.98-.98-2.04c-.09-.22-.14-.22-.23,0l-.98,2.04-2.04.98c-.23.09-.23.14,0,.23l2.04.98.98,2.04c.09.23.14.23.23,0Z"/>
</svg>