<svg xmlns="http://www.w3.org/2000/svg" viewBox="0 0 220 168">
  <!-- Profile 1: solid blue (back/left) -->
  <path
    d="M 82,13 C 62,11 49,26 49,50 C 49,70 59,90 72,98 L 75,108 L 75,116 L 129,116 L 132,108 C 137,98 132,90 123,86 C 117,82 118,71 123,62 C 128,53 122,43 114,38 L 110,32 C 113,26 109,20 103,16 C 97,12 89,12 82,13 Z"
    fill="#2B5C8A"
  />
  <!-- Profile 2: white fill + blue stroke (front/right) -->
  <path
    d="M 117,13 C 97,11 84,26 84,50 C 84,70 94,90 107,98 L 110,108 L 110,116 L 164,116 L 167,108 C 172,98 167,90 158,86 C 152,82 153,71 158,62 C 163,53 157,43 149,38 L 145,32 C 148,26 144,20 138,16 C 132,12 124,12 117,13 Z"
    fill="white"
    stroke="#2B5C8A"
    stroke-width="2.5"
  />
  <!-- Text -->
  <text
    x="110"
    y="155"
    text-anchor="middle"
    font-family="Arial, Helvetica, sans-serif"
    font-weight="900"
    font-size="28"
    fill="#2B5C8A"
    letter-spacing="-0.5"
  >mentalytics</text>
</svg>
